<svg xmlns="http://www.w3.org/2000/svg" viewBox="0 0 40 40">
  <rect x="2" y="2" width="36" height="36" rx="8" fill="#0c7a5f"/>
  <path d="M12 12.8c0-2.2 3.6-4 8-4s8 1.8 8 4v13.8c0 2.2-3.6 4-8 4s-8-1.8-8-4V12.8Z" fill="#ffffff" fill-opacity="0.2" stroke="#f7fff9" stroke-width="1.35"/>
  <path d="M12 12.8c0 2.2 3.6 4 8 4s8-1.8 8-4M12 19.5c0 2.2 3.6 4 8 4s8-1.8 8-4" fill="none" stroke="#f7fff9" stroke-linecap="round" stroke-linejoin="round" stroke-width="1.7"/>
  <path d="M14.5 8.8v6.6M16.4 8.8v6.6M18.3 8.8v6.6M16.4 15.4v13.2M25.8 8.7c2.1 2.2 2 6.8-1 8.9v10.9" fill="none" stroke="#f7fff9" stroke-linecap="round" stroke-linejoin="round" stroke-width="1.7"/>
</svg>
